<svg xmlns="http://www.w3.org/2000/svg" width="1200" height="800" viewBox="0 0 1200 800">
  <defs>
    <linearGradient id="card" x1="0" x2="0" y1="0" y2="1">
      <stop offset="0%" stop-color="#2c2f38"/>
      <stop offset="100%" stop-color="#252832"/>
    </linearGradient>
    <linearGradient id="glass" x1="0" x2="0" y1="0" y2="1">
      <stop offset="0%" stop-color="#7fa2c7" stop-opacity="0.75"/>
      <stop offset="55%" stop-color="#a9c0dc" stop-opacity="0.55"/>
      <stop offset="100%" stop-color="#e2eef8" stop-opacity="0.85"/>
    </linearGradient>
    <pattern id="pleats" width="18" height="14" patternUnits="userSpaceOnUse">
      <rect width="18" height="10" fill="#b9a38b"/>
      <rect y="10" width="18" height="4" fill="#a89178"/>
    </pattern>
    <filter id="shadow" x="-20%" y="-20%" width="140%" height="140%">
      <feDropShadow dx="0" dy="10" stdDeviation="14" flood-color="#000" flood-opacity="0.35"/>
    </filter>
  </defs>

  <rect width="1200" height="800" fill="#15171c"/>

  <g filter="url(#shadow)">
    <rect x="120" y="60" width="960" height="680" rx="28" fill="url(#card)"/>
  </g>

  <text x="170" y="130" font-family="Arial, sans-serif" font-size="30" font-weight="600" fill="#f0f0f0">Honeycomb Curtain</text>

  <rect x="170" y="160" width="860" height="360" rx="18" fill="#111214"/>
  <rect x="200" y="190" width="800" height="300" rx="16" fill="url(#glass)" stroke="#0e0f12" stroke-width="16"/>
  <rect x="220" y="210" width="760" height="50" rx="16" fill="#0f1013"/>
  <rect x="240" y="300" width="720" height="26" rx="13" fill="#0f1013"/>
  <rect x="240" y="440" width="720" height="30" rx="15" fill="#0f1013"/>
  <rect x="250" y="326" width="700" height="114" rx="12" fill="url(#pleats)"/>
  <rect x="230" y="220" width="300" height="90" rx="12" fill="#ffffff" opacity="0.10"/>
  <rect x="260" y="235" width="240" height="70" rx="10" fill="#ffffff" opacity="0.06"/>

  <text x="170" y="560" font-family="Arial, sans-serif" font-size="20" fill="#d5d7dc">Top motor: 46%</text>
  <text x="520" y="560" font-family="Arial, sans-serif" font-size="20" fill="#d5d7dc">Bottom motor: 15%</text>
  <text x="170" y="590" font-family="Arial, sans-serif" font-size="20" fill="#d5d7dc">Status: Partially open</text>

  <g>
    <rect x="170" y="620" width="160" height="48" rx="12" fill="#2f333d" stroke="#3c404b"/>
    <text x="210" y="651" font-family="Arial, sans-serif" font-size="18" fill="#f0f0f0">Open</text>

    <rect x="350" y="620" width="160" height="48" rx="12" fill="#2f333d" stroke="#3c404b"/>
    <text x="406" y="651" font-family="Arial, sans-serif" font-size="18" fill="#f0f0f0">Stop</text>

    <rect x="530" y="620" width="160" height="48" rx="12" fill="#2f333d" stroke="#3c404b"/>
    <text x="575" y="651" font-family="Arial, sans-serif" font-size="18" fill="#f0f0f0">Close</text>

    <rect x="710" y="620" width="160" height="48" rx="12" fill="#2f333d" stroke="#3c404b"/>
    <text x="742" y="651" font-family="Arial, sans-serif" font-size="18" fill="#f0f0f0">Middle</text>

    <rect x="890" y="620" width="190" height="48" rx="12" fill="#2f333d" stroke="#3c404b"/>
    <text x="910" y="651" font-family="Arial, sans-serif" font-size="18" fill="#f0f0f0">Bottom closed</text>
  </g>
</svg>
